# xmcd
#
# Track frame offsets:
#	150
#	15310
#	34637
#	53060
#	70077
#	87762
#	105310
#	123062
#	143370
#	162330
#	180652
#	198852
#	223332
#	243470
#
# Disc length: 3466 seconds
#
# Revision: 2
# Processed by: cddbd v1.5.1PL0 Copyright (c) Steve Scherf et al.
# Submitted via: EZCDDA 4.3.2
#
DISCID=ab0d880e
DTITLE=Zezé di Camargo and Luciano - Os 14 Maiores Sucessos
DYEAR=1900
DGENRE=
TTITLE0=É o Amor
TTITLE1=Saudade Bandida
TTITLE2=Faz Mais Uma Vez Comigo
TTITLE3=Eu Só Penso Em Você
TTITLE4=Você Vai Ver
TTITLE5=Vem Cuidar De Mim
TTITLE6=Pão De Mel
TTITLE7=Sem Medo De Ser Feliz
TTITLE8=Menina Veneno
TTITLE9=Indiferença
TTITLE10=Seus Olhos
TTITLE11=Preciso Ser Amado
TTITLE12=Quando A Gente Ama Demais
TTITLE13=Salva Meu Coração
EXTD=
EXTT0=
EXTT1=
EXTT2=
EXTT3=
EXTT4=
EXTT5=
EXTT6=
EXTT7=
EXTT8=
EXTT9=
EXTT10=
EXTT11=
EXTT12=
EXTT13=
PLAYORDER=
